<?xml version="1.0" encoding="UTF-8" standalone="no"?>
<!-- Created with Inkscape (http://www.inkscape.org/) -->

<svg
   width="25.912271mm"
   height="24.62278mm"
   viewBox="0 0 25.912271 24.62278"
   version="1.1"
   id="svg1"
   xml:space="preserve"
   inkscape:export-filename="export.svg"
   inkscape:export-xdpi="96"
   inkscape:export-ydpi="96"
   xmlns:inkscape="http://www.inkscape.org/namespaces/inkscape"
   xmlns:sodipodi="http://sodipodi.sourceforge.net/DTD/sodipodi-0.dtd"
   xmlns="http://www.w3.org/2000/svg"
   xmlns:svg="http://www.w3.org/2000/svg"><sodipodi:namedview
     id="namedview1"
     pagecolor="#ffffff"
     bordercolor="#666666"
     borderopacity="1.0"
     inkscape:showpageshadow="2"
     inkscape:pageopacity="0.0"
     inkscape:pagecheckerboard="0"
     inkscape:deskcolor="#d1d1d1"
     inkscape:document-units="mm"
     showguides="false"><inkscape:page
       x="0"
       y="0"
       width="25.912271"
       height="24.62278"
       id="page2"
       margin="0"
       bleed="0" /></sodipodi:namedview><defs
     id="defs1" /><g
     inkscape:label="Layer 1"
     inkscape:groupmode="layer"
     id="layer1"
     transform="translate(34.039623,-92.538675)"><g
       id="g5892"><g
         id="g5891"
         transform="matrix(1.3479654,0,0,1.2340444,46.504887,-16.610046)"><g
           id="g5876"
           transform="translate(-53.028993,24.563164)"><g
             id="g5882"
             transform="translate(-15.834436,-53.760404)"><g
               id="g5886"
               transform="matrix(0.68925872,0,0,0.7213834,-65.019657,-40.38549)"><g
                 id="g5890"
                 transform="translate(113.12415,5.417223)"><g
                   id="g5885"
                   transform="translate(-60.102364,31.008061)"><g
                     id="g5893"
                     inkscape:export-filename="export.svg"
                     inkscape:export-xdpi="96"
                     inkscape:export-ydpi="96"><g
                       id="g5889"
                       transform="translate(3.451368,-34.112126)"
                       inkscape:export-filename="export2.svg"
                       inkscape:export-xdpi="96"
                       inkscape:export-ydpi="96"><g
                         id="g5884"
                         transform="translate(-34.649975,-2.1888886)"
                         style="fill:#918a6f"><path
                           style="fill:#918a6f;stroke:#000000;stroke-width:0.264583px;stroke-linecap:butt;stroke-linejoin:miter;stroke-opacity:1"
                           d="m 99.654499,234.39462 -0.06579,11.97429 10.987401,-6.11873 -0.39476,-12.17167 z"
                           id="use5884" /></g><path
                         style="fill:#484537;stroke:#000000;stroke-width:0.375222px;stroke-linecap:butt;stroke-linejoin:miter;stroke-opacity:1"
                         d="m 54.456874,226.30947 10.799439,6.06214 0.03374,11.41486 c 0,0 -11.001932,-5.51396 -10.934433,-5.67519 0.0675,-0.16123 0.101245,-11.80181 0.101245,-11.80181 z"
                         id="path5889" /></g><path
                       style="fill:#c8c4b7;stroke:#000000;stroke-width:0.264583px;stroke-linecap:butt;stroke-linejoin:miter;stroke-opacity:1"
                       d="m 68.206995,186.09704 -10.60714,5.90837 10.79323,6.1875 10.79323,-6.1875 z"
                       id="path5884" /><path
                       style="fill:#ff00cc"
                       d="m 62.970915,207.35247 c -2.94475,-1.61937 -5.40268,-2.94431 -5.46206,-2.94431 -0.12045,0 -1.3291,0.64931 -1.43537,0.77111 -0.13046,0.14952 -0.005,0.22214 0.66807,0.38562 0.78955,0.19187 0.98275,0.27253 1.03617,0.43262 0.0579,0.17364 -0.11783,0.39443 -0.31496,0.39565 -0.25013,0.002 -2.71136,-0.63102 -2.82931,-0.72716 -0.0574,-0.0468 -0.10429,-0.14967 -0.10429,-0.2287 0,-0.27076 0.67711,-2.58018 0.78719,-2.6849 0.1418,-0.13487 0.31695,-0.12825 0.47048,0.0178 0.14099,0.13412 0.14502,0.0987 -0.11852,1.04278 -0.24325,0.87137 -0.2176,0.88828 0.64668,0.4262 0.36461,-0.19494 0.70193,-0.39153 0.7496,-0.43688 0.0747,-0.0711 0.0867,-0.90035 0.0867,-6.01956 0,-4.66076 0.016,-5.95771 0.0745,-6.03297 0.041,-0.0527 2.50143,-1.42869 5.46769,-3.05769 l 5.39319,-2.96182 0.0165,-0.83731 c 0.0142,-0.72191 0.004,-0.84207 -0.0781,-0.87184 -0.0657,-0.024 -0.28172,0.14062 -0.70808,0.53971 -0.39316,0.36802 -0.65938,0.57424 -0.7413,0.57424 -0.16625,0 -0.3662,-0.19249 -0.3662,-0.35254 0,-0.18693 2.06689,-2.14163 2.26454,-2.14163 0.19766,0 2.26455,1.9547 2.26455,2.14163 0,0.16005 -0.19995,0.35254 -0.3662,0.35254 -0.0819,0 -0.34814,-0.20622 -0.7413,-0.57424 -0.42636,-0.39909 -0.64234,-0.56371 -0.70808,-0.53971 -0.0816,0.0298 -0.0923,0.14985 -0.0781,0.87093 l 0.0165,0.8364 5.39319,2.96173 c 2.96626,1.62895 5.42671,3.00532 5.46768,3.0586 0.0585,0.076 0.0745,1.37374 0.0745,6.03397 0,5.11921 0.0119,5.94847 0.0867,6.01956 0.0477,0.0453 0.385,0.24194 0.74961,0.43688 0.86428,0.46208 0.88993,0.44517 0.64668,-0.4262 -0.26354,-0.94407 -0.25952,-0.90866 -0.11852,-1.04278 0.15352,-0.14603 0.32868,-0.15265 0.47047,-0.0178 0.11009,0.10472 0.78719,2.41414 0.78719,2.6849 0,0.079 -0.0469,0.18205 -0.10428,0.22895 -0.12052,0.0985 -2.55486,0.72591 -2.81665,0.72591 -0.23748,0 -0.40268,-0.22738 -0.30831,-0.42438 0.0681,-0.14226 0.31871,-0.23431 1.25529,-0.46116 0.45147,-0.10934 0.55152,-0.18766 0.42499,-0.33268 -0.1078,-0.12355 -1.30659,-0.76578 -1.42942,-0.76578 -0.0583,0 -2.52144,1.32644 -5.47358,2.94765 -3.02539,1.66144 -5.42738,2.9462 -5.50469,2.94431 -0.0754,-0.002 -2.54651,-1.32828 -5.49126,-2.94765 z m 5.07401,1.86263 c 0.0546,-0.0519 0.0715,-1.33058 0.0715,-5.40943 0,-4.65581 -0.0114,-5.35224 -0.0888,-5.42585 -0.14484,-0.13777 -9.91366,-5.70559 -10.01055,-5.70559 -0.0489,0 -0.10345,0.0574 -0.12127,0.12754 -0.0178,0.0702 -0.025,2.43607 -0.016,5.2576 0.0163,5.11211 0.0168,5.13011 0.13777,5.14658 0.0722,0.01 0.93575,-0.43246 2.13052,-1.0912 1.10502,-0.60925 2.06733,-1.10773 2.13846,-1.10773 0.18629,0 0.3473,0.162 0.3473,0.34944 0,0.20883 -0.013,0.21711 -2.32414,1.4841 -1.35427,0.74242 -1.87719,1.05718 -1.87719,1.12993 0,0.074 1.26205,0.79463 4.73766,2.70527 2.60572,1.43244 4.75242,2.60509 4.77045,2.6059 0.018,8e-4 0.065,-0.0292 0.10429,-0.0666 z m 5.79116,-2.57179 c 2.59005,-1.4232 4.70918,-2.62 4.70918,-2.65954 0,-0.10623 0.009,-0.10075 -2.08576,-1.24855 -1.06523,-0.58364 -1.98372,-1.10041 -2.04107,-1.14838 -0.21793,-0.18226 -0.0595,-0.57982 0.23104,-0.57982 0.0759,0 1.04391,0.49814 2.15102,1.10699 1.16025,0.63806 2.06343,1.1003 2.13213,1.0912 0.11805,-0.0156 0.11934,-0.0648 0.13557,-5.14584 0.009,-2.82153 0.002,-5.18745 -0.016,-5.2576 -0.0178,-0.0701 -0.0714,-0.12754 -0.11901,-0.12754 -0.10586,0 -9.98803,5.64297 -10.05329,5.74069 -0.0256,0.0383 -0.0469,2.46867 -0.0474,5.40087 -9.4e-4,5.47236 0.001,5.52224 0.21958,5.44249 0.0412,-0.015 2.19399,-1.19177 4.78404,-2.61497 z m -0.26686,-11.74098 c 4.32729,-2.47799 4.94625,-2.84924 4.94625,-2.96683 0,-0.11839 -0.56084,-0.44339 -4.70787,-2.72815 -2.59838,-1.43155 -4.76128,-2.58846 -4.82706,-2.58195 -0.11653,0.0115 -0.11985,0.064 -0.14899,2.3547 -0.0284,2.23622 -0.0351,2.34656 -0.14547,2.42331 -0.14672,0.102 -0.27745,0.102 -0.42417,0 -0.11041,-0.0768 -0.11704,-0.18708 -0.14548,-2.42256 -0.0267,-2.09684 -0.0399,-2.34399 -0.12603,-2.35975 -0.0529,-0.01 -2.22511,1.15205 -4.82706,2.58161 -4.11051,2.2584 -4.73082,2.61635 -4.73082,2.72993 0,0.11268 0.68703,0.52483 4.97604,2.98517 3.13144,1.79631 5.02023,2.84749 5.09523,2.83569 0.0655,-0.0103 2.345,-1.29334 5.06543,-2.85117 z"
                       id="path5876" /></g></g></g></g></g></g></g></g></g></svg>
