<?xml version="1.0" encoding="UTF-8" standalone="no"?>
<svg xmlns="http://www.w3.org/2000/svg" xmlns:xlink="http://www.w3.org/1999/xlink" width="43.144905" height="53.753098">
  <defs>
    <linearGradient id="f">
      <stop offset="0" stop-color="#fafafa"/>
      <stop offset="1" stop-color="#bbb"/>
    </linearGradient>
    <linearGradient id="g">
      <stop offset="0" stop-color="#a3a3a3"/>
      <stop offset="1" stop-color="#8a8a8a"/>
    </linearGradient>
    <linearGradient id="j">
      <stop offset="0" stop-color="#fff"/>
      <stop offset="1" stop-color="#f8f8f8"/>
    </linearGradient>
    <linearGradient id="i">
      <stop offset="0"/>
      <stop offset="1" stop-opacity="0"/>
    </linearGradient>
    <linearGradient id="a">
      <stop offset="0" stop-color="#fff"/>
      <stop offset="1" stop-color="#fff" stop-opacity="0"/>
    </linearGradient>
    <linearGradient id="h">
      <stop offset="0"/>
      <stop offset="1" stop-opacity="0"/>
    </linearGradient>
    <linearGradient id="k">
      <stop offset="0" stop-color="#fff"/>
      <stop offset=".25" stop-color="#fefede" stop-opacity=".91836733"/>
      <stop offset=".5" stop-color="#f5f328"/>
      <stop offset="1" stop-color="#f5f32d" stop-opacity=".12234043"/>
    </linearGradient>
    <linearGradient xlink:href="#a" id="s" x1="33.396004" x2="34.170048" y1="36.921333" y2="38.070381" gradientTransform="rotate(-91.878 431.15997963 63.34112062)" gradientUnits="userSpaceOnUse"/>
    <linearGradient id="b" x1="83.460403" x2="204.8024" y1="67.090797" y2="188.4328" gradientTransform="matrix(0 1 1 0 -.00048828 -.00097656)" gradientUnits="userSpaceOnUse">
      <stop offset="0" stop-color="#06c"/>
      <stop offset="1" stop-color="#039"/>
    </linearGradient>
    <linearGradient id="c" x1="83.398399" x2="204.8073" y1="66.984398" y2="188.3932" gradientTransform="matrix(0 1 1 0 -.00048828 -.00097656)" gradientUnits="userSpaceOnUse">
      <stop offset="0" stop-color="#fff"/>
      <stop offset="1" stop-color="#f0f0f0"/>
    </linearGradient>
    <linearGradient id="d" x1="82.572304" x2="203.9109" y1="67.966301" y2="189.3049" gradientTransform="matrix(0 1 1 0 -.00048828 -.00097656)" gradientUnits="userSpaceOnUse">
      <stop offset="0" stop-color="#fff"/>
      <stop offset="1" stop-color="#dfdfdf"/>
    </linearGradient>
    <linearGradient id="e" x1="102.7588" x2="195.35629" y1="92.283203" y2="184.881" gradientTransform="matrix(0 1 1 0 -.00048828 -.00097656)" gradientUnits="userSpaceOnUse">
      <stop offset="0" stop-color="#428aff"/>
      <stop offset="1" stop-color="#039"/>
    </linearGradient>
    <linearGradient xlink:href="#b" id="u" x1="83.460403" x2="204.8024" y1="67.090797" y2="188.4328" gradientTransform="matrix(0 .11402 .11402 0 392.1415 480.66777)" gradientUnits="userSpaceOnUse"/>
    <linearGradient xlink:href="#c" id="v" x1="83.398399" x2="204.8073" y1="66.984398" y2="188.3932" gradientTransform="matrix(0 .11402 .11402 0 392.1415 480.66777)" gradientUnits="userSpaceOnUse"/>
    <linearGradient xlink:href="#d" id="w" x1="82.572304" x2="203.9109" y1="67.966301" y2="189.3049" gradientTransform="matrix(0 .11402 .11402 0 392.1415 480.66777)" gradientUnits="userSpaceOnUse"/>
    <linearGradient xlink:href="#e" id="x" x1="102.7588" x2="195.35629" y1="92.283203" y2="184.881" gradientTransform="matrix(0 .11402 .11402 0 392.1415 480.66777)" gradientUnits="userSpaceOnUse"/>
    <radialGradient xlink:href="#f" id="q" cx="30.653816" cy="14.9373" r="86.70845" fx="30.653816" fy="14.9373" gradientTransform="matrix(.14835 .0101 -.01104 .16237 407.75579 464.10017)" gradientUnits="userSpaceOnUse"/>
    <radialGradient xlink:href="#g" id="r" cx="31.863327" cy="2.3667307" r="37.751713" fx="31.863327" fy="2.3667307" gradientTransform="matrix(.33174 0 0 .35383 402.80094 460.86541)" gradientUnits="userSpaceOnUse"/>
    <radialGradient xlink:href="#h" id="p" cx="37.030354" cy="12.98915" r="4.2929163" fx="37.030354" fy="12.98915" gradientTransform="matrix(1.74465 0 0 1.28383 356.11312 447.80475)" gradientUnits="userSpaceOnUse"/>
    <radialGradient xlink:href="#i" id="l" cx="24.306795" cy="42.07798" r="15.821514" fx="24.306795" fy="42.07798" gradientTransform="matrix(1 0 0 .28492 0 30.08928)" gradientUnits="userSpaceOnUse"/>
    <radialGradient xlink:href="#f" id="m" cx="33.966679" cy="35.736916" r="86.70845" fx="33.966679" fy="35.736916" gradientTransform="scale(.9605 1.04113)" gradientUnits="userSpaceOnUse"/>
    <radialGradient xlink:href="#g" id="n" cx="8.824419" cy="3.7561285" r="37.751713" fx="8.824419" fy="3.7561285" gradientTransform="matrix(.96827 0 0 1.03277 3.353553 .646447)" gradientUnits="userSpaceOnUse"/>
    <radialGradient xlink:href="#j" id="o" cx="8.1435566" cy="7.2678967" r="38.158695" fx="8.1435566" fy="7.2678967" gradientTransform="matrix(.96827 0 0 1.03277 3.353553 .646447)" gradientUnits="userSpaceOnUse"/>
    <radialGradient xlink:href="#k" id="t" cx="38.658855" cy="9.3411446" r="8.341651" fx="38.658855" fy="9.3411446" gradientUnits="userSpaceOnUse"/>
  </defs>
  <g transform="translate(-386.99898 -451.92328)">
    <path fill="url(#l)" fill-rule="evenodd" d="M40.128309 42.07798c0 2.489592-7.083533 4.507806-15.821514 4.507806-8.737981 0-15.821514-2.018214-15.821514-4.507806 0-2.489592 7.083533-4.507806 15.821514-4.507806 8.737981 0 15.821514 2.018214 15.821514 4.507806z" color="#000" opacity=".47252748" overflow="visible" style="marker:none" transform="matrix(1.17318 0 0 .68627 378.044182 465.54471)"/>
    <g stroke-linecap="round" stroke-linejoin="round" color="#000" transform="translate(382.69568 451.28311)">
      <path fill="url(#m)" stroke="url(#n)" d="m7.7526014 3.6464462 23.4470146-.015625S41.478553 13.174533 41.478553 13.811106v29.606786c0 .636573-.512476 1.149048-1.149049 1.149048H7.7526014c-.6365729 0-1.1490486-.512475-1.1490486-1.149048V4.7954948c0-.6365729.5124757-1.1490486 1.1490486-1.1490486z" display="block" overflow="visible" style="marker:none"/>
      <path fill="none" stroke="url(#o)" d="M7.8151023 4.5839462H32.691494s7.750446 8.0214268 7.750446 8.1039998v30.693336c0 .08257-.06648.149049-.149048.149049H7.8151023c-.082573 0-.1490485-.06648-.1490485-.149049V4.7329948c0-.082573.066476-.1490486.1490485-.1490486z" display="block" overflow="visible" style="marker:none"/>
    </g>
    <path fill="url(#p)" fill-rule="evenodd" d="M423.68087 465.14456c-.72836-1.34663-6.10297-3.73052-8.90056-4.53004.16951 1.57294-.12277 6.31803-.12277 6.31803 2.0625-1.375 8.24262-1.95011 9.02333-1.78799z" color="#000" opacity=".35714285" overflow="visible" style="marker:none"/>
    <path fill="url(#q)" stroke="url(#r)" stroke-linejoin="round" d="M424.10624 465.02238c.0132-1.41515-6.35254-10.20726-10.23512-10.10378.97304.233 1.75036 6.16803.36064 8.98053 2.75 0 8.91061-.73493 9.87448 1.12325z" color="#000" display="block" overflow="visible" style="marker:none"/>
    <path fill="none" stroke="url(#s)" stroke-width="1.00000024" d="M421.81724 462.86932c-.72836-1.34663-4.15853-5.06955-6.08112-6.30658.23894 1.42585.53706 3.68243-.0786 6.24481 0 0 5.379-.10035 6.15971.0618z" color="#000" overflow="visible" style="marker:none"/>
    <path fill="url(#t)" fill-rule="evenodd" d="M47.000506 9.3411446c0 4.6069664-3.734684 8.3416514-8.341651 8.3416514-4.606966 0-8.341651-3.734685-8.341651-8.3416514 0-4.6069667 3.734685-8.341651 8.341651-8.341651 4.606967 0 8.341651 3.7346843 8.341651 8.341651z" transform="translate(375.10035 451.77401) scale(1.14985)"/>
    <path fill="#fff" fill-rule="evenodd" d="M44.520054 15.50279c-.507171.878446-4.594703-.160823-5.521351.251748-.926648.41257-2.889414 4.145604-3.88159 3.934711-.992177-.210894-1.266891-4.419519-1.945618-5.173323-.678728-.753803-4.835582-1.466933-4.94161-2.475719-.106028-1.008786 3.811722-2.5705906 4.318893-3.4490369.507171-.8784463-.09914-5.0522193.827507-5.4647895.926648-.4125703 3.622664 2.8308064 4.614841 3.0417001.992176.2108936 4.77431-1.6555099 5.453037-.9017066.678728.7538034-1.572792 4.3201254-1.466764 5.3289109.106027 1.008786 3.049826 4.029058 2.542655 4.907505z" color="#000" overflow="visible" style="marker:none" transform="matrix(.67412 .29958 -.29958 .67412 398.15981 444.09064)"/>
    <g transform="translate(-90.684157 -115.74713) scale(1.22243)">
      <path d="M394.56276 497.23238c.00012-.00023.20217-.32828.20217-.32828.2122-.3447 2.14218-3.45678 4.52735-6.54822 3.39577-4.40135 5.87262-6.45118 7.79519-6.45118 1.92223 0 4.39919 2.04983 7.79485 6.45118 2.38996 3.0976 4.31595 6.20409 4.52758 6.54822l.20217.3285c.18027.29248.18803.66078.0203.96066-.16762.3-.48529.48632-.82862.48632h-5.55643v7.90465c0 .52338-.42565.94914-.94914.94914l-10.42153.00012c-.52337 0-.94925-.42588-.94925-.94926v-7.90465h-5.55632c-.34367 0-.66123-.18643-.82873-.48655-.16773-.29965-.15997-.66773.0204-.96065z" opacity=".2"/>
      <path d="M394.33471 497.00433c.00012-.00023.20217-.32828.20217-.32828.2122-.3447 2.14218-3.45678 4.52735-6.54822 3.39578-4.40135 5.87262-6.45118 7.79519-6.45118 1.92223 0 4.39919 2.04983 7.79485 6.45118 2.38996 3.0976 4.31595 6.20409 4.52758 6.54822l.20217.3285c.18027.29248.18803.66078.0203.96066-.16762.3-.48529.48632-.82862.48632h-5.55643v7.90465c0 .52338-.42565.94915-.94914.94915l-10.42153.00011c-.52337 0-.94925-.42588-.94925-.94926v-7.90465h-5.55632c-.34367 0-.66123-.18643-.82873-.48655-.16773-.29965-.15997-.66772.0204-.96065z" opacity=".2"/>
      <path fill="url(#u)" d="M394.21202 496.77628c.00012-.00023.20217-.32828.20217-.32828.2122-.3447 2.14218-3.45678 4.52735-6.54822 3.39577-4.40124 5.87274-6.45106 7.79519-6.45106 1.92235 0 4.39931 2.04982 7.79497 6.45118 2.38996 3.09759 4.31595 6.20409 4.52758 6.54821l.20216.32851c.18028.29247.18803.66077.0203.96066-.16762.3-.48529.48631-.82862.48631h-5.55643v7.90466c0 .52337-.42565.94914-.94914.94914l-10.42152.00011c-.52338 0-.94926-.42588-.94926-.94925v-7.90466h-5.55631c-.34367 0-.66123-.18643-.82873-.48654-.16785-.29977-.1601-.66784.0203-.96077z"/>
      <path fill="url(#v)" d="M395.22251 496.94572c.31551-.51232 7.76817-12.54775 11.51422-12.54775 3.74583 0 11.19872 12.03532 11.51423 12.54775l.20216.3285h-6.50568v8.85391h-10.42153v-8.85391h-6.50568l.20228-.3285z"/>
      <path fill="url(#w)" d="M406.73673 485.11633c2.33797 0 7.4229 6.71959 10.42221 11.43954h-5.92986v8.85379c-1.15324 0-7.83145.00012-8.9847.00012v-8.85391h-5.92985c2.99862-4.71995 8.08321-11.43954 10.4222-11.43954z"/>
      <path fill="url(#x)" d="M401.37723 492.10046c3.45096-4.52051 5.04913-5.26122 5.35973-5.36943.31083.10844 1.909.85017 5.35917 5.36943.66419.87001 1.35712 1.82919 2.06487 2.8545h-4.53283v8.8538h-5.78299v-8.8538h-4.53294c.70729-1.02451 1.40022-1.98369 2.06499-2.8545z"/>
    </g>
  </g>
</svg>