<?xml version="1.0" encoding="UTF-8" standalone="no"?>
<!-- Created with Inkscape (http://www.inkscape.org/) -->

<svg
   width="135.40431mm"
   height="135.25385mm"
   viewBox="0 0 135.40431 135.25385"
   version="1.1"
   id="svg1"
   xml:space="preserve"
   xmlns:inkscape="http://www.inkscape.org/namespaces/inkscape"
   xmlns:sodipodi="http://sodipodi.sourceforge.net/DTD/sodipodi-0.dtd"
   xmlns="http://www.w3.org/2000/svg"
   xmlns:svg="http://www.w3.org/2000/svg"><sodipodi:namedview
     id="namedview1"
     pagecolor="#ffffff"
     bordercolor="#666666"
     borderopacity="1.0"
     inkscape:showpageshadow="2"
     inkscape:pageopacity="0.0"
     inkscape:pagecheckerboard="0"
     inkscape:deskcolor="#d1d1d1"
     inkscape:document-units="mm"><inkscape:page
       x="0"
       y="-1.151655e-13"
       width="135.40431"
       height="135.25385"
       id="page2"
       margin="0"
       bleed="0" /></sodipodi:namedview><defs
     id="defs1" /><g
     inkscape:label="Layer 1"
     inkscape:groupmode="layer"
     id="layer1"
     transform="translate(-182.69097,-108.42962)"><g
       id="g2"
       transform="translate(153.71053,-86.345865)"><path
         style="fill:#fad345"
         d="M 133.1948,267.78476 V 246.4858 h 1.85208 1.85209 v 21.15554 21.15553 l 2.05052,0.0902 c 1.16874,0.0514 0.3723,0.11307 -1.85209,0.14342 l -3.9026,0.0533 z"
         id="path8" /><path
         style="fill:#efc102"
         d="M 136.89897,267.65247 V 246.4858 h 1.98437 1.98437 v 21.16667 21.16666 h -1.98437 -1.98437 z"
         id="path7" /><path
         style="fill:#cb5096"
         d="m 134.54684,294.27074 c -0.84972,-0.47096 -1.33132,-1.40618 -1.34267,-2.60734 l -0.009,-0.99218 h 3.87087 3.87086 l -0.14068,1.24818 c -0.10846,0.96223 -0.32946,1.41685 -0.96463,1.98438 -0.74317,0.66403 -1.01155,0.73527 -2.73799,0.72681 -1.07637,-0.005 -2.1908,-0.16276 -2.54639,-0.35985 z M 91.324488,274.33342 c 3.52888,-0.0417 9.303412,-0.0417 12.832292,0 3.52888,0.0417 0.64161,0.0758 -6.416146,0.0758 -7.05776,0 -9.945026,-0.0341 -6.416146,-0.0758 z m 22.813452,0.008 c 0.94211,-0.0562 1.81438,-0.24471 1.93837,-0.41882 0.15841,-0.22243 0.19351,-0.19855 0.11807,0.0803 -0.0815,0.30134 -0.5481,0.40216 -1.93838,0.41882 l -1.83099,0.022 z m 1.85894,-1.1014 c 0,-0.12855 -0.23812,-0.296 -0.52916,-0.37211 -0.52285,-0.13673 -0.52841,-0.33374 -0.46508,-16.50117 l 0.0641,-16.36279 0.0702,16.33802 c 0.0693,16.11729 0.0773,16.33802 0.59737,16.33802 0.29219,0 0.52715,0.1769 0.52715,0.39688 0,0.21828 -0.0595,0.39687 -0.1323,0.39687 -0.0728,0 -0.13229,-0.10517 -0.13229,-0.23372 z m -23.878642,-0.49359 c 3.092318,-0.0423 8.152472,-0.0423 11.244792,0 3.09232,0.0423 0.56224,0.077 -5.622396,0.077 -6.184635,0 -8.714713,-0.0346 -5.622396,-0.077 z m 20.635492,0.0249 0.5933,-0.12763 0.0712,-16.31988 0.0712,-16.31988 -0.003,16.40417 -0.003,16.40416 -0.66146,0.0433 c -0.57897,0.0379 -0.58747,0.0274 -0.0681,-0.0843 z M 92.118238,240.20224 c 3.092318,-0.0423 8.152472,-0.0423 11.244792,0 3.09232,0.0423 0.56224,0.077 -5.622396,0.077 -6.184635,0 -8.714713,-0.0346 -5.622396,-0.077 z m 23.940032,-0.86019 c 0,-0.50932 0.0545,-0.71768 0.121,-0.46302 0.0665,0.25466 0.0665,0.67138 0,0.92604 -0.0666,0.25467 -0.121,0.0463 -0.121,-0.46302 z m -24.733782,-0.72738 c 3.52888,-0.0417 9.303412,-0.0417 12.832292,0 3.52888,0.0417 0.64161,0.0758 -6.416146,0.0758 -7.05776,0 -9.945026,-0.0341 -6.416146,-0.0758 z m -4.854649,-2.31533 c 0.02557,-0.52028 0.21257,-0.52923 11.138503,-0.53347 l 11.112498,-0.004 -11.028324,0.0733 c -10.223225,0.068 -11.03637,0.10691 -11.138504,0.53348 -0.08266,0.34523 -0.103682,0.32799 -0.08417,-0.069 z m 22.714021,0.47908 c 0.25466,-0.0666 0.67138,-0.0666 0.92604,0 0.25467,0.0665 0.0463,0.121 -0.46302,0.121 -0.50932,0 -0.71768,-0.0545 -0.46302,-0.121 z m -24.293611,-1.93428 c 0.01773,-1.68552 0.03299,-1.7215 0.765376,-1.80541 0.572718,-0.0656 0.780623,0.0419 0.89001,0.46017 0.140947,0.53898 0.281802,0.54669 11.291259,0.61773 l 11.148526,0.072 -11.203411,0.0632 c -11.007762,0.0621 -11.205832,0.054 -11.341795,-0.46597 -0.0886,-0.33879 -0.360896,-0.52916 -0.756891,-0.52916 -0.572043,0 -0.625748,0.12423 -0.714839,1.65364 l -0.09633,1.65365 z"
         id="path6" /><path
         style="fill:#0095d3"
         d="M 90.067718,329.79251 C 73.21473,328.05917 57.999097,320.34664 46.419599,307.66807 30.161924,289.8673 24.762419,264.30239 32.379796,241.19414 c 3.438386,-10.43077 9.018971,-19.39655 16.831624,-27.04172 10.855383,-10.62267 23.625089,-16.83667 39.136506,-19.04463 3.112611,-0.44307 13.556134,-0.44307 16.668754,0 17.95301,2.55551 32.86359,10.82953 44.19245,24.52281 3.87979,4.68952 8.16032,12.0056 10.52668,17.99166 1.01072,2.55677 2.90433,8.61056 2.74363,8.77127 -0.0536,0.0536 -8.06358,-5.38012 -17.79992,-12.07496 l -17.70243,-12.17243 -29.236456,0.0651 -29.236457,0.0652 -0.132292,22.16755 -0.132291,22.16755 -7.540625,-5.46257 c -4.147343,-3.00441 -7.689453,-5.58274 -7.871354,-5.72963 -0.264108,-0.21327 -0.330729,4.49788 -0.330729,23.38791 v 23.65497 l 19.777603,13.60132 c 12.929893,8.89205 20.098232,13.6651 20.703645,13.78553 0.875682,0.1742 0.882876,0.18396 0.132292,0.17949 -0.436563,-0.003 -1.805781,-0.10882 -3.042708,-0.23604 z m 10.255692,0.11449 c 0.32911,-0.0633 0.80536,-0.0609 1.05833,0.005 0.25296,0.0662 -0.0163,0.118 -0.5984,0.11507 -0.58208,-0.003 -0.789052,-0.0571 -0.45993,-0.12041 z m 3.43649,-0.25268 c 0.18191,-0.0734 0.47956,-0.0734 0.66146,0 0.1819,0.0734 0.0331,0.13345 -0.33073,0.13345 -0.3638,0 -0.51263,-0.0601 -0.33073,-0.13345 z m 2.13321,-0.2701 c 0.19099,-0.0764 0.4192,-0.067 0.50712,0.0209 0.0879,0.0879 -0.0684,0.15046 -0.34727,0.13897 -0.30822,-0.0127 -0.37092,-0.0754 -0.15985,-0.15986 z m 1.85208,-0.26458 c 0.191,-0.0764 0.4192,-0.067 0.50712,0.0209 0.0879,0.0879 -0.0683,0.15045 -0.34727,0.13896 -0.30822,-0.0127 -0.37092,-0.0754 -0.15985,-0.15985 z m 29.94753,-12.88374 c 0,-0.0549 0.20835,-0.2633 0.46302,-0.46302 0.41964,-0.3291 0.429,-0.31975 0.0999,0.0999 -0.34564,0.44073 -0.56291,0.58089 -0.56291,0.36312 z m 2.91041,-2.38125 c 0,-0.0549 0.20836,-0.2633 0.46302,-0.46302 0.41965,-0.3291 0.429,-0.31975 0.0999,0.0999 -0.34565,0.44073 -0.56292,0.58089 -0.56292,0.36312 z m 3.83646,-3.60427 c 0.86401,-0.87312 1.63047,-1.5875 1.70323,-1.5875 0.0728,0 -0.57463,0.71438 -1.43865,1.5875 -0.86401,0.87313 -1.63046,1.5875 -1.70322,1.5875 -0.0728,0 0.57463,-0.71437 1.43864,-1.5875 z m 3.04271,-3.27489 c 0,-0.0549 0.20836,-0.2633 0.46302,-0.46302 0.41964,-0.32911 0.429,-0.31975 0.0999,0.0999 -0.34564,0.44073 -0.56291,0.58089 -0.56291,0.36313 z m -14.4907,-17.09802 c 0,-0.50933 0.0545,-0.71769 0.121,-0.46302 0.0666,0.25466 0.0666,0.67138 0,0.92604 -0.0665,0.25466 -0.121,0.0463 -0.121,-0.46302 z m 30.38659,-16.29393 c 0.0127,-0.30822 0.0754,-0.37092 0.15985,-0.15985 0.0764,0.191 0.067,0.4192 -0.0209,0.50712 -0.0879,0.0879 -0.15045,-0.0684 -0.13896,-0.34727 z m 0.26458,-1.85208 c 0.0127,-0.30822 0.0754,-0.37092 0.15985,-0.15985 0.0764,0.19099 0.067,0.4192 -0.0209,0.50712 -0.0879,0.0879 -0.15045,-0.0684 -0.13896,-0.34727 z m 0.28547,-1.96233 c 0,-0.3638 0.0601,-0.51263 0.13345,-0.33072 0.0734,0.1819 0.0734,0.47955 0,0.66145 -0.0734,0.1819 -0.13345,0.0331 -0.13345,-0.33073 z m 0.28953,-3.30729 c 0.003,-0.58208 0.0571,-0.78905 0.12041,-0.45993 0.0633,0.32912 0.0609,0.80537 -0.005,1.05833 -0.0662,0.25297 -0.11801,-0.0163 -0.11507,-0.5984 z m 0.005,-8.06979 c 0,-0.65484 0.0516,-0.92273 0.11466,-0.59531 0.0631,0.32742 0.0631,0.8632 0,1.19062 -0.0631,0.32743 -0.11466,0.0595 -0.11466,-0.59531 z m -0.28507,-3.30729 c 0.005,-0.43656 0.0647,-0.58312 0.13178,-0.32569 0.0671,0.25743 0.0627,0.61462 -0.01,0.79375 -0.0725,0.17913 -0.12736,-0.0315 -0.12197,-0.46806 z m -0.29527,-2.13871 c 0.0127,-0.30823 0.0754,-0.37092 0.15985,-0.15986 0.0764,0.191 0.067,0.4192 -0.0209,0.50712 -0.0879,0.0879 -0.15045,-0.0683 -0.13896,-0.34726 z m -0.26458,-1.85209 c 0.0127,-0.30822 0.0754,-0.37092 0.15985,-0.15985 0.0764,0.191 0.067,0.4192 -0.0209,0.50712 -0.0879,0.0879 -0.15045,-0.0683 -0.13896,-0.34727 z"
         id="path5" /><path
         style="fill:#6cb330"
         d="m 52.496886,279.02955 c 0,-12.95135 0.06514,-23.54791 0.144756,-23.54791 0.07962,0 7.788912,5.55757 17.13177,12.35016 9.342858,6.79259 21.987639,15.98052 28.099514,20.41761 6.111874,4.4371 11.945934,8.67991 12.964584,9.42847 1.01864,0.74856 2.89388,2.11155 4.16719,3.02887 1.2733,0.91731 2.3151,1.71348 2.3151,1.76928 0,0.0558 -14.58516,0.10144 -32.411457,0.10144 H 52.496886 Z m 37.825965,14.45607 c -0.328134,-0.30541 -13.29586,-9.72495 -25.125965,-18.25108 -1.819011,-1.31099 -3.45612,-2.49628 -3.638021,-2.63399 -0.263265,-0.1993 -0.330729,1.94208 -0.330729,10.49765 v 10.74802 h 14.74107 c 12.457166,0 14.681045,-0.0559 14.353645,-0.3606 z"
         id="path4" /><path
         style="fill:#007cb3"
         d="m 93.005478,329.88055 c -0.562641,-0.11475 -8.237368,-5.22911 -20.52412,-13.67704 l -19.625423,-13.49375 37.126724,-0.0671 37.126721,-0.0671 V 262.4921 c 0,-22.0459 0.0545,-40.08346 0.1211,-40.08346 0.0666,0 8.01402,5.42443 17.66093,12.05428 l 17.53985,12.05428 0.45359,1.89746 c 1.17203,4.90286 1.74369,13.22917 1.28894,18.77385 -0.76284,9.30124 -2.8116,16.84592 -6.77368,24.94451 -9.82666,20.08587 -28.79919,33.90798 -51.04255,37.18617 -3.61403,0.53263 -11.804459,0.87693 -13.352082,0.56128 z m 46.865872,-36.01257 0.86407,-0.77199 0.0704,-23.42373 0.0704,-23.42372 -0.94732,-2.46105 c -0.52103,-1.35359 -1.37495,-3.62715 -1.8976,-5.05237 -0.52265,-1.42521 -1.03453,-2.49678 -1.1375,-2.38125 -0.10298,0.11553 -0.55501,1.22209 -1.00451,2.45902 -0.44951,1.23692 -1.23593,3.34155 -1.74761,4.67693 l -0.93033,2.42798 -0.0265,23.25027 c -0.0207,18.18768 0.0462,23.40967 0.30707,23.98234 0.49266,1.08127 1.43183,1.46696 3.60136,1.47896 1.74832,0.01 1.98887,-0.0562 2.77812,-0.76139 z M 61.228136,283.10577 v -10.74044 l 1.389062,0.99685 c 0.763985,0.54827 2.371328,1.71263 3.571875,2.58746 l 2.182812,1.59059 v 8.153 8.15299 h -3.571874 -3.571875 z"
         id="path3" /><path
         style="fill:#434242"
         d="m 85.040635,256.53997 v -17.72708 h 12.699999 12.699996 v 17.72708 17.72708 H 97.740634 85.040635 Z m 23.812495,0 V 240.1358 h -11.112496 -11.1125 v 16.40417 16.40416 h 11.1125 11.112496 z m 3.43959,17.08402 c 0,-0.46543 0.16443,-0.66641 0.59531,-0.7276 l 0.59531,-0.0845 0.0682,-16.33802 0.0682,-16.33802 h -0.66348 c -0.5608,0 -0.66347,-0.12283 -0.66347,-0.79375 v -0.79375 h 1.85208 1.85208 v 0.79375 c 0,0.61736 -0.11759,0.79375 -0.52916,0.79375 -0.52344,0 -0.52917,0.17639 -0.52917,16.28018 0,15.26346 0.0289,16.29085 0.46302,16.45101 0.59988,0.22133 0.84519,0.60134 0.67482,1.04534 -0.0956,0.2491 -0.67916,0.35472 -1.9599,0.35472 -1.75505,0 -1.82377,-0.0242 -1.82377,-0.64306 z m 22.61661,-32.09912 c 0.10101,-0.25467 0.54669,-1.47506 0.9904,-2.71198 0.44372,-1.23693 0.8888,-2.34128 0.98908,-2.45411 0.10028,-0.11283 0.66234,1.10756 1.24903,2.71198 l 1.06669,2.91713 h -2.23942 c -2.02636,0 -2.22195,-0.0441 -2.05578,-0.46302 z m -49.868695,-6.41615 c 0,-1.775 0.02625,-1.85208 0.630599,-1.85208 0.408084,0 0.679429,0.18672 0.76898,0.52916 0.135611,0.51858 0.360896,0.52917 11.257248,0.52917 h 11.118868 l 0.0846,-0.59531 c 0.0605,-0.42625 0.29118,-0.61909 0.81215,-0.67904 l 0.7276,-0.0837 v 1.86966 1.86966 h -0.79375 c -0.61879,0 -0.79375,-0.11727 -0.79375,-0.53204 0,-0.52569 -0.13339,-0.53121 -11.178642,-0.46302 l -11.178645,0.069 -0.08455,0.59531 c -0.06119,0.43088 -0.262171,0.59531 -0.727604,0.59531 -0.619776,0 -0.643056,-0.067 -0.643056,-1.85208 z"
         id="path2" /></g></g></svg>
